<svg viewBox="0 0 20 20" fill="none" xmlns="http://www.w3.org/2000/svg">
<path fill-rule="evenodd" clip-rule="evenodd" d="M13.8086 0.773928C17.5244 2.30594 20 5.92558 20 10.0077C20 15.5273 15.5219 20 10 20C4.47812 20 0 15.5273 0 10.0077C0 5.92587 2.4758 2.30588 6.19143 0.773928C6.58445 0.611887 7.03382 0.800564 7.19514 1.19535C7.35645 1.59013 7.16862 2.04153 6.7756 2.20357C3.63104 3.50007 1.53846 6.55974 1.53846 10.0077C1.53846 14.6718 5.32583 18.4546 10 18.4546C14.6742 18.4546 18.4615 14.6718 18.4615 10.0077C18.4615 6.55946 16.3691 3.50014 13.2244 2.20357C12.8314 2.04153 12.6435 1.59013 12.8049 1.19535C12.9662 0.800564 13.4156 0.611887 13.8086 0.773928ZM10.7692 12.0856V0.772694C10.7692 0.345947 10.4248 0 10 0C9.57517 0 9.23077 0.345947 9.23077 0.772694V12.0856L7.46545 10.3224C7.1642 10.0216 6.67715 10.0229 6.3776 10.3256C6.07805 10.6282 6.07944 11.1174 6.3807 11.4183L9.45762 14.4915C9.75767 14.7912 10.2423 14.7912 10.5424 14.4915L13.6193 11.4183C13.9206 11.1174 13.9219 10.6282 13.6224 10.3256C13.3229 10.0229 12.8358 10.0216 12.5345 10.3224L10.7692 12.0856Z" fill="black"/>
</svg>
