<svg viewBox="0 0 20 20" fill="none" xmlns="http://www.w3.org/2000/svg">
<path fill-rule="evenodd" clip-rule="evenodd" d="M13.8086 19.2261C17.5244 17.6941 20 14.0744 20 9.99232C20 4.47272 15.5219 0 10 0C4.47812 0 0 4.47272 0 9.99232C0 14.0741 2.4758 17.6941 6.19143 19.2261C6.58445 19.3881 7.03382 19.1994 7.19514 18.8047C7.35645 18.4099 7.16862 17.9585 6.7756 17.7964C3.63104 16.4999 1.53846 13.4403 1.53846 9.99232C1.53846 5.32819 5.32583 1.54538 10 1.54538C14.6742 1.54538 18.4615 5.32819 18.4615 9.99232C18.4615 13.4405 16.3691 16.4999 13.2244 17.7964C12.8314 17.9585 12.6435 18.4099 12.8049 18.8047C12.9662 19.1994 13.4156 19.3881 13.8086 19.2261ZM10.7692 7.91437V19.2273C10.7692 19.6541 10.4248 20 10 20C9.57517 20 9.23077 19.6541 9.23077 19.2273V7.91437L7.46545 9.67755C7.1642 9.97845 6.67715 9.97705 6.3776 9.67444C6.07805 9.37183 6.07944 8.88259 6.3807 8.58169L9.45762 5.50848C9.75767 5.2088 10.2423 5.2088 10.5424 5.50848L13.6193 8.58169C13.9206 8.88259 13.9219 9.37183 13.6224 9.67444C13.3229 9.97705 12.8358 9.97845 12.5345 9.67755L10.7692 7.91437Z" fill="black"/>
</svg>
