<svg viewBox="0 0 22 22" fill="none" xmlns="http://www.w3.org/2000/svg">
<path fill-rule="evenodd" clip-rule="evenodd" d="M18.7724 8.73065L21.5992 9.19265C21.8307 9.23043 22.0005 9.43035 22 9.6647V12.2951C22 12.5271 21.8335 12.726 21.6044 12.7662L18.7738 13.2631C18.6098 13.8303 18.3845 14.3765 18.1009 14.893L19.774 17.216C19.9113 17.4063 19.8897 17.6679 19.7242 17.8339L17.8646 19.6948C17.7001 19.8588 17.4418 19.8823 17.2514 19.7479L14.9053 18.1022C14.3878 18.3901 13.8382 18.6197 13.2648 18.7885L12.7649 21.6054C12.7248 21.8336 12.5263 22 12.2943 22H9.66362C9.42973 22 9.23028 21.8312 9.19249 21.6011L8.72567 18.798C8.15314 18.6326 7.6007 18.4044 7.07792 18.117L4.74859 19.7483C4.5587 19.8818 4.29994 19.8588 4.13588 19.6948L2.27624 17.8339C2.11123 17.6679 2.0897 17.4073 2.22554 17.2174L3.87138 14.9155C3.58105 14.3904 3.35051 13.8361 3.18358 13.2607L0.3946 12.7662C0.166449 12.7256 0 12.5271 0 12.2951V9.6647C0 9.4313 0.169319 9.23139 0.399861 9.19313L3.18884 8.72874C3.35673 8.15196 3.58727 7.59765 3.87664 7.07396L2.25089 4.74817C2.11744 4.5583 2.1404 4.30004 2.30446 4.136L4.16362 2.277C4.32959 2.112 4.58931 2.09 4.78015 2.2263L7.09036 3.8763C7.60931 3.59222 8.16032 3.366 8.73428 3.201L9.19154 0.401261C9.22932 0.169783 9.42925 0 9.66362 0H12.2943C12.5267 0 12.7252 0.167391 12.7654 0.396L13.2585 3.21104C13.8292 3.377 14.3792 3.60561 14.9001 3.89352L17.2165 2.2287C17.4069 2.09143 17.668 2.11296 17.834 2.27843L19.6941 4.13743C19.8582 4.30196 19.8811 4.5607 19.7477 4.75057L18.0975 7.10217C18.3807 7.61822 18.6069 8.16343 18.7724 8.73065ZM7.65188 11C7.65188 12.849 9.15088 14.3478 11 14.3478C12.8491 14.3478 14.3481 12.849 14.3481 11C14.3481 9.15104 12.8491 7.65217 11 7.65217C9.15088 7.65217 7.65188 9.15104 7.65188 11Z" fill="black"/>
</svg>
